<?xml version="1.0" encoding="utf-8"?>
<!-- Generator: Adobe Illustrator 18.0.0, SVG Export Plug-In . SVG Version: 6.00 Build 0)  -->
<!DOCTYPE svg PUBLIC "-//W3C//DTD SVG 1.1//EN" "http://www.w3.org/Graphics/SVG/1.1/DTD/svg11.dtd">
<svg xmlns="http://www.w3.org/2000/svg" xmlns:xlink="http://www.w3.org/1999/xlink" version="1.1" id="Слой_1" x="0px" y="0px" viewBox="63.6 0 658.8 1024" enable-background="new 63.6 0 658.8 1024" xml:space="preserve">
<path fill="#FFFFFF" stroke="" stroke-width="2" stroke-miterlimit="10" d="M720.1,462.8c0,0-3.8-29-2.5-46.1  c0,0,4.4-12.6-24-73.8c0,0-5-24.6-4.4-47.3c0,0,0-33.6-12-48.1c-1.1-1.4-2.4-2.6-3.8-3.6l6.9-0.6c0,0-20.2-15.1-15.8-24  c0,0,16.4-20.2,6.3-71.9c0,0,8.8-16.4,5.7-29c0,0,13.9-44.8-14.5-91.5c0,0-19.1-25.2-41.8,3.8c0,0-21.9,26.5-25.7,42.9  c0,0-9,21.9-17.2,23.2c0,0-7.7,1.8-10.3,4.9l-32.5-2l-32.2-41.1c0,0-32.2-58.7-42.3-53.1c0,0-6.3,7.2,5.7,46.8c0,0,0,39,1.9,51.6  c0,0-2.5,16.4,1.9,18.3c0,0-12.6,9.5-16.4,17c0,0-12.6,3.2-12,12.6c0,0-2.5,12.6-3.2,18.9c0,0-13.9,12-13.2,22.7  c0,0-5.7,10.1-3.2,16.4c0,0-19.6,27.1,3.8,46.1c0,0,8.1,31.5,48.8,31.5l27.5,25.2c0,0-53.6,38.3-61.2,64.1  c0,0-150.8,44.3-165.9,69.5h8.6c0,0-72.9,56.9-95.6,103.6l8.2-5.7c0,0-33.4,56.2-41.6,59.9l8.2-3.8c0,0-65.3,89-79.2,168.5l5.4-8.2  c0,0-29.7,95.9-20.8,136.3l3.8-6.7c0,0,0,32.5-6.5,39.1h4.2c0,0-12.8,30.7,0.4,54.1c0,0,11.4,32.2,91.5,32.8c0,0,292.1,17.7,324.9,0  l-11.4-1.3c0,0,10.7-1.9,17-5.7c0,0,50.5,11.4,68.8,1.9c0,0,24.6,2.5,33.4-3.2c0,0,15.1,4.3,13.3-18.4c0,0-0.9-3.2-3.7-7.5  c5.1,3.3,13.1,5.3,25.8,3.9c0,0,51.7,8.2,59.3-13.9c0,0,13.9-10.1,0-30.9c0,0-14.7-14.4-44.2-6.3c0,0-10.1-39.1-10.1-75.1  c0,0,5.7-90.2-0.6-131.2l4.4,2.5c0,0-8.2-24-5-46.7l4.4,12c0,0-1.3-31.5,17-53c0,0,28.4-34.7,35.3-73.2c0,0,11.4-29.7,21.5-41.6  C711.3,528.4,728.3,520.8,720.1,462.8z M444.4,911.1c-8.2-8.5-33.4-2-33.4-2c-8.8,3.8-27.8,1.1-27.8,1.1c-3.2-5,3.9-17,3.9-17  c5,8.2,10.1,7.6,10.1,7.6c-10.1-7.6-4.1-27.1-4.1-27.1c-1.6,8.8,14.2,18.9,14.2,18.9c-8.2-10.7,0-30.3,0-30.3  c4.4,1.9,5.7,10.1,5.7,10.1c5-6.9,4.4-27.8,4.4-27.8l4.4,7.6c3.2-5.7-4.4-37.2-4.4-37.2c15.1,8.8,23.3,73.8,23.3,73.8l3.8-6.9  C445,891.2,444.4,911.1,444.4,911.1z M538.4,853.4l3.6,2.5l-9.9-0.6c0,0-6.2-0.9-3.9,6.8c1,4.8,3.4,10.3,8.9,13.3l-8.8-5  c1.6,6.6,6.9,15.3,20.2,25.8c0,0,9.5,17.7-12,28.4c0,0-12.6-1.3-13.3-27.8c0,0-2.9-37-16.4-87.1c-0.6-2.3-1.2-4.6-1.9-6.9l4.4,3.2  c0,0-7.6-49.8,1.9-65.6c0,0,7.6-1.3,6.3,6.9l5.7-11.4c0,0,14.5-7.6,18.9,26.5l3.2-5.7l25.2,81.4c0,0-7.6,12,5,25.9  c0,0,0.2,4.6,0.8,11.2C565.4,862.3,551.4,850.6,538.4,853.4z M572.5,962.5c0,0,11.4-7.6,15.1-11.4l-6.9-1.3c0,0,4.8-3.9,9.4-10.5  l5.1,23.8c0,0-0.9,5.6,1.7,11.3C591.6,969.7,583.9,965,572.5,962.5z"/>
</svg>
